<?xml version="1.0" encoding="utf-8"?>
<!-- Generator: Adobe Illustrator 16.0.0, SVG Export Plug-In . SVG Version: 6.00 Build 0)  -->
<!DOCTYPE svg PUBLIC "-//W3C//DTD SVG 1.1//EN" "http://www.w3.org/Graphics/SVG/1.1/DTD/svg11.dtd">
<svg version="1.1" xmlns="http://www.w3.org/2000/svg" xmlns:xlink="http://www.w3.org/1999/xlink" x="0px" y="0px" width="391px"
	 height="775px" viewBox="0 0 391 775" enable-background="new 0 0 391 775" xml:space="preserve">
<g>
	<g>
		<polygon points="168.656,143.99 172.232,144.705 175.988,145.24 179.743,145.24 183.677,145.063 187.254,144.348 191.009,143.452 
			194.586,142.379 198.162,140.591 201.739,138.445 204.961,137.014 208.355,135.764 211.574,134.868 215.333,134.333 
			219.085,133.976 222.844,134.153 226.238,134.868 229.639,135.583 225.347,133.618 220.873,132.187 216.224,131.114 
			211.574,130.219 206.749,129.861 202.1,129.861 197.447,130.219 192.619,130.576 187.969,131.472 183.499,133.08 179.028,134.511 
			174.557,136.479 170.265,138.802 166.331,141.486 164.9,142.379 		"/>
		<polygon points="101.417,131.472 105.529,133.08 109.821,134.333 114.113,135.406 118.405,135.941 123.055,136.122 
			127.346,135.941 131.638,135.583 136.109,134.868 140.222,133.438 144.335,132.187 146.66,131.114 151.31,129.326 
			155.422,128.611 159.356,127.896 163.47,127.715 167.225,127.715 171.338,128.253 175.272,128.968 179.028,130.219 
			175.272,127.896 171.159,126.107 167.046,124.496 162.754,123.246 158.462,122.53 153.992,121.815 149.521,121.635 
			145.229,121.815 140.58,122.35 135.93,123.246 139.328,120.204 142.368,118.059 145.587,116.093 148.806,114.482 152.204,113.409 
			155.959,112.516 159.714,112.159 163.47,111.978 167.046,112.159 170.802,112.516 174.199,113.231 181.531,114.482 
			188.685,115.197 195.837,115.377 203.349,115.377 210.502,115.197 218.013,114.482 225.347,113.409 232.318,112.159 
			239.472,110.37 246.449,108.402 248.952,107.687 245.909,108.402 240.902,109.475 235.719,110.19 230.53,110.728 225.347,110.905 
			219.982,110.37 214.975,110.013 209.61,108.939 204.603,107.687 199.771,105.898 194.407,104.29 188.685,102.502 183.141,101.249 
			177.418,100.533 173.126,99.998 175.272,98.925 178.67,96.957 182.425,95.168 186.181,93.918 190.115,92.665 194.407,92.13 
			198.341,91.772 193.513,90.161 188.685,89.269 183.499,88.553 178.491,88.015 173.484,88.015 168.477,88.015 163.47,88.73 
			158.462,89.626 153.455,91.057 148.806,92.665 144.156,94.811 139.507,97.137 135.215,99.818 131.102,102.502 126.989,105.721 
			123.412,109.117 120.015,112.874 117.153,116.808 112.146,124.496 110.894,126.107 109.643,127.715 108.033,129.326 
			106.245,130.219 104.099,131.114 		"/>
		<polygon points="261.646,74.604 257.894,78.181 254.317,81.22 250.559,84.081 246.625,86.584 242.515,88.73 238.041,90.699 
			233.573,92.13 229.1,93.38 224.45,94.276 219.982,94.811 214.975,94.991 210.502,94.811 205.852,94.276 213.362,89.446 
			219.085,86.407 224.808,83.366 230.712,81.042 236.792,79.074 242.515,77.466 248.413,76.57 254.851,75.14 		"/>
		<polygon points="227.669,252.537 221.946,262.374 216.939,270.778 214.26,276.323 210.859,273.639 207.641,271.493 
			204.063,269.705 200.309,268.454 196.553,267.917 192.619,267.559 188.863,267.917 184.929,268.454 180.995,269.169 
			177.239,270.778 169.908,274.177 158.462,281.688 147.375,289.733 140.222,295.278 132.89,301.179 135.93,388.269 
			124.127,388.269 114.649,388.269 101.417,388.269 84.785,388.269 82.639,374.498 79.957,360.729 76.917,347.316 73.34,333.905 
			69.048,320.672 64.22,307.439 58.855,294.741 53.133,282.045 46.874,269.705 39.899,257.544 37.038,252.537 		"/>
		<polygon points="88.362,398.64 90.15,414.198 93.905,454.076 97.482,494.134 99.807,534.013 101.774,574.249 102.489,614.307 
			103.026,654.364 102.489,694.601 117.153,694.601 127.525,694.601 132.532,694.601 141.295,694.601 140.222,553.862 
			138.792,413.304 143.262,410.979 148.09,408.833 152.561,407.938 157.568,407.402 160.787,407.938 164.9,408.833 168.298,410.264 
			171.517,412.768 174.736,415.808 177.418,398.64 		"/>
		<polygon points="137.897,704.794 137.897,770.781 131.996,770.781 123.591,770.781 118.763,770.781 101.953,704.794 		"/>
		<path stroke="#000000" stroke-width="3" stroke-linecap="round" stroke-linejoin="round" d="M130,30.333
			C135.799,30.05,141.563,30,147.333,30c5.259,0,11.336-0.85,15.992,1.251c8.49,3.831,10.953,13.063,20.341,14.823
			c10.519,1.973,20.966,3.217,31.231,7.267c-13.008,0.1-26.064-0.877-38.565-3.692c-5.135-1.156-9.06-4.826-13.926-7.065
			c-4.522-2.081-10.978-2.816-16.074-1.51c-2.87,0.735-13.114,4.944-12.583,7.501c0.698,3.362,11.116,4.605,13.991,5.017
			c11.603,1.664,23.87,2.844,35.616,3.425c26.794,1.326,53.774-1.968,79.235,7.399c8.246,3.034,18.044,2.255,26.689,2.634
			c-0.183,5.618-10.681,5.803-14.69,5.025c-6.809-1.321-13.3-2.808-20.184-4.094c-14.395-2.688-27.12,3.575-41.002,5.02
			c-19.243,2.002-37.62-9.833-57.074-8.667c-5.069,0.304-12.271,1.876-16.999,3.741c-3.247,1.281-5.93,4.167-8.999,5.934
			c-2.874,1.654-12.086,7.341-7.02,10.757c2.847,1.919,6.699-0.209,9.344-1.183c3.149-1.159,6.27-1.846,9.334-3.241
			c6.275-2.855,12.755-5.206,19.689-5.693c7.088-0.498,14.336-0.65,21.058,1.269c6.245,1.783,11.729,4.123,18.259,4.416
			c3.745,0.168,7.535,0.152,11.3,0.399c-3.25,4.926-13.139,3.98-17.982,2.842c-8.596-2.02-18.727-3.452-27.658-3.242
			c-12.903,0.304-23.732,7.99-34.259,13.741c-4.861,2.656-9.953,5.519-14.743,8.324c-3.91,2.29-8.17,6.287-13.324,5.269
			c-3.118-0.616-3.658-2.24-4.26-5.073c-0.606-2.851,1.094-4.225,0.935-6.935c-0.232-3.952-4.769-9.518-7.415-12.641
			c-2.053-2.422-2.989-3.148-3.907-6.036c-0.731-2.299-1.549-4.484-1.703-6.983c-0.309-5.01,2.52-7.54,3.935-12.025
			c2.543-8.058,3.271-15.297,10.461-20.994c3.042-2.41,7.132-2.981,10.825-3.719C118.75,32.154,124.333,30.611,130,30.333z"/>
		<path d="M125.219,201.355c-0.066-1.189-0.177-2.379-0.398-3.549c-0.074-0.391-0.294-0.635-0.567-0.777
			c0.004-0.266-0.059-0.53-0.186-0.755c-0.028-0.284-0.109-0.561-0.249-0.807c-0.604-1.063-1.813-1.253-2.853-0.787
			c-0.686,0.308-1.384,0.419-2.018,0.722c-1.126-0.029-2.266,0.046-3.449,0.091c-0.481,0.018-0.906,0.227-1.243,0.534
			c-0.442-0.004-0.894-0.013-1.339,0.006c-0.741,0.002-1.481,0.004-2.221,0.006c-0.066-0.002-0.126-0.016-0.196-0.012
			c-0.225,0.001-0.439,0.01-0.659,0.014c-0.614,0.002-1.228,0.003-1.841,0.005c-0.102,0-0.193,0.015-0.287,0.027
			c-0.933,0.012-1.867,0.038-2.8,0.068c-0.038-0.145-0.083-0.288-0.146-0.426c-0.003-0.009-0.008-0.017-0.011-0.025
			c-0.011-0.024-0.021-0.048-0.033-0.072c-0.128-0.314-0.337-0.588-0.631-0.78c-0.171-0.134-0.363-0.241-0.575-0.311
			c-0.878-0.289-1.606-0.378-2.275-0.251c-0.218-0.092-0.457-0.158-0.742-0.157l-1.5-0.003c-0.01,0-0.02,0.002-0.03,0.003
			c-2.99,0.003-5.98,0.001-8.97-0.001c-0.342,0-0.631,0.08-0.877,0.208c-4.181-0.574-8.354-1.071-12.608-0.177
			c-0.3,0.063-0.554,0.217-0.768,0.412c-0.749,0-1.498-0.001-2.247-0.002c-0.588,0-1.05,0.25-1.375,0.619
			c-2.375,0-4.75,0.001-7.125,0.002c-0.117,0-0.223,0.015-0.328,0.032c-0.058-0.005-0.111-0.017-0.172-0.017
			c-1.5,0.001-3,0.002-4.5,0.004c-0.431,0-0.781,0.124-1.053,0.326c-0.599-0.177-1.219-0.214-1.82,0.128
			c-0.157,0.089-0.298,0.214-0.43,0.355c-0.157,0.02-0.315,0.057-0.472,0.127c-0.374,0.117-0.748,0.234-1.122,0.351
			c-0.678,0.183-1.169,0.808-1.167,1.514c0.001,0.337,0.002,0.674,0.002,1.01c-0.102,0.22-0.205,0.451-0.311,0.71
			c-0.253,0.618-0.107,1.431,0.318,1.937l0.002,0.843c0.001,0.501,0.278,0.914,0.655,1.192c0.233,0.514,0.725,0.771,1.243,0.789
			c-0.323,0.588-0.325,1.328-0.05,1.931c-0.042-0.002-0.088,0.003-0.131,0.004c-0.347-0.444-0.903-0.693-1.569-0.46
			c-1.174,0.411-2.358,0.764-3.534,1.13c-0.37-0.155-0.825-0.165-1.326,0.067c-0.832,0.386-1.635,0.821-2.438,1.257
			c-0.531,0.221-1.058,0.455-1.575,0.722c-0.062,0.032-0.113,0.072-0.167,0.109c-1.892,0.376-3.558,1.117-5.044,2.3
			c-0.699-0.388-1.668-0.399-2.288,0.182c-1.002,0.938-1.804,2.066-2.722,3.087c-0.962-0.761-2.661-0.406-2.643,1.189
			c0.007,0.649-0.201,1.211-0.512,1.721c-0.526,0.038-1.056,0.306-1.44,0.875c-0.77,1.138-1.568,2.148-2.547,3.063
			c-0.36,0.109-0.659,0.349-0.786,0.734c-0.378,0.409-0.494,0.858-0.417,1.279c-0.163,0.304-0.326,0.609-0.488,0.914
			c-0.179,0.129-0.355,0.263-0.537,0.388c-0.892,0.617-1.017,1.599-0.637,2.325c-0.9,0.004-1.8,0.008-2.699,0.012
			c-0.585-0.016-1.169-0.027-1.75-0.029c-0.174-0.149-0.377-0.269-0.647-0.304c-1.72-0.226-3.06-0.133-4.458,0.375
			c-0.21,0.008-0.421,0.019-0.634,0.023c-0.134-0.025-0.276-0.041-0.433-0.032c-0.392-0.021-0.782,0.015-1.172,0.067
			c-0.248-0.767-0.971-1.155-1.703-1.153c-0.902-0.002-1.804,0.578-1.8,1.743c-0.004,1.333-0.008,2.667-0.012,4
			c-0.003,0.99,0.827,1.81,1.813,1.813c0.659,0.002,1.319,0.004,1.978,0.006c0.165,0.111,0.368,0.196,0.612,0.246
			c1.162,0.236,2.155,0.297,3.25,0.175c0.719,0,1.439-0.01,2.161-0.011c0.203,0,0.386-0.041,0.556-0.101
			c0.738-0.01,1.476-0.02,2.214-0.029c-0.095,0.125-0.17,0.271-0.222,0.435c-0.616,0.155-1.134,0.64-1.125,1.467v0.008
			c-0.448,1.511-0.078,3.678-0.024,4.992c0.006,0.143,0.029,0.274,0.063,0.397c0,0.034,0,0.069,0,0.103
			c-0.002,0.994,0.768,1.49,1.538,1.488c0.071,0,0.142-0.008,0.212-0.016c0.838,0.391,2.012,0.09,2.39-0.978
			c0.126,0.022,0.256,0.039,0.398,0.039c1.226,0.015,2.452,0.032,3.678,0.034c0.31,0.4,0.769,0.681,1.322,0.679
			c2.555-0.011,5.11,0.032,7.665-0.03c2.951,0.09,5.884,0.4,8.835,0.481c0.337,0.009,0.617-0.064,0.849-0.187
			c2.549,0.101,5.099,0.196,7.651,0.22c0.525,0.005,0.922-0.185,1.2-0.473c0.1,0,0.2,0,0.3,0c0.543,0,0.967-0.236,1.262-0.581
			c0.727,0.039,1.449,0.041,2.17,0.021c0.172,0.054,0.357,0.091,0.568,0.092c1.292,0.005,2.584-0.002,3.876-0.003
			c0.312,0.282,0.714,0.461,1.181,0.45c1.235-0.031,2.514-0.233,3.785-0.453c0.553-0.001,1.105,0,1.658-0.001
			c0.08,0,0.15-0.014,0.224-0.022l2.735-0.004c0.29,0.182,0.636,0.295,1.041,0.295h4.483c1.359,0,2.611-0.498,4.017-0.5
			c1.272-0.002,1.979-1.021,1.999-2.046c0.133-0.481,0.11-1.022-0.14-1.561c-0.216-0.466-0.404-0.898-0.622-1.315
			c0.088-0.817-0.301-1.667-1.284-1.857c-2.651-0.51-5.569-0.751-8.279-0.353c-0.979-0.421-1.813,0.091-2.051,1.213
			c-0.228-0.018-0.458-0.043-0.685-0.058c-0.261-0.465-0.74-0.803-1.438-0.802c-0.234,0-0.469,0-0.703-0.001
			c-0.125-0.134-0.288-0.245-0.529-0.292c-2.733-0.533-5.485-0.782-8.247-0.874c0.066-0.103,0.124-0.211,0.168-0.326
			c0.45-0.022,0.906-0.079,1.409-0.221c1.675,0.053,3.345,0.161,5.021,0.396c0.635,0.089,1.146-0.177,1.475-0.577
			c0.237-0.104,0.435-0.275,0.59-0.479c0.345,0.35,0.797,0.584,1.316,0.582c0.124,0,0.247,0,0.371-0.001
			c0.251,0.202,0.576,0.33,0.969,0.359c0.018,0.006,0.036,0.012,0.054,0.017c-0.296,0.003-0.128,0.02,0.107,0.034
			c0.154,0.037,0.318,0.062,0.499,0.061c1.5-0.003,3-0.006,4.5-0.009c0.737,0.001,1.251-0.337,1.555-0.811
			c0.344-0.229,0.572-0.551,0.707-0.903c0.245,0.661,0.823,1.191,1.738,1.209c0.122,0.002,0.244,0.005,0.367,0.007
			c0.187,0.149,0.401,0.272,0.667,0.331c1.308,0.289,2.635,0.216,3.966,0.216c0.563,0,0.994-0.187,1.31-0.47
			c1.116-0.143,1.678-1.078,1.675-2.022c0.002-0.517-0.163-1.033-0.496-1.418c0.349-0.315,0.472-0.757,0.431-1.186
			c0.783,0.263,1.72,0.046,2.357-0.887c0.498-0.73,0.907-1.476,1.26-2.236c0.863-0.047,1.717-0.642,1.807-1.773
			c0.009-0.113,0.031-0.218,0.043-0.329c0.486-0.738,0.801-1.586,0.999-2.539c0.089-0.035,0.177-0.072,0.265-0.108
			c0,0,0,0.001,0,0.001c0.002-0.001,0.004-0.003,0.006-0.004c1.698-0.711,3.006-1.649,4.083-2.77c1.86-1.357,3.41-2.932,3.603-5.205
			c0.063-0.006,0.124-0.007,0.189-0.019c0.078-0.015,0.143-0.045,0.219-0.062c0.223,0.083,0.47,0.143,0.749,0.16
			c3.352,0.209,6.029-1.23,8.115-3.573c1.021-0.578,1.951-1.256,2.865-2.073c0.653-0.583,0.739-1.378,0.49-2.076
			c0.946-0.387,1.814-0.869,2.594-1.528c0.09-0.005,0.18-0.013,0.269-0.029c0.038,0.001,0.08-0.008,0.118-0.01
			c0.228,0.394,0.575,0.664,0.966,0.802c0.033,0.068,0.057,0.141,0.091,0.208c0.341,0.675,1.214,1.008,1.926,0.812
			c0.059-0.016,0.076-0.025,0.073-0.03c0.784-0.042,1.306-0.493,1.569-1.215C125.412,203.491,125.272,202.313,125.219,201.355z
			 M29,236.026c-0.135,0.016-0.26,0.045-0.381,0.08c0.011-0.369,0.021-0.738,0.032-1.106c0.014-0.472-0.245-0.806-0.59-0.983
			c0.175-0.005,0.334-0.035,0.477-0.084c0.146,0.038,0.298,0.064,0.462,0.065c0.708,0.004,1.413,0.034,2.119,0.048
			c-0.127,0.604,0.005,1.27,0.429,1.763C30.698,235.86,29.849,235.929,29,236.026z M64.219,225.326
			c-0.623-0.28-1.257-0.516-1.899-0.722c0.087,0.002,0.174,0.005,0.261,0.005c0.81,0.042,1.623,0.062,2.438,0.072
			C64.683,224.783,64.389,224.998,64.219,225.326z M69.21,225.768c-0.116,0.222-0.217,0.444-0.313,0.666c-0.001,0-0.002,0-0.002,0
			c-0.026-0.833-0.663-1.262-1.325-1.284c0.058-0.208,0.12-0.414,0.182-0.621c0.08,0.012,0.16,0.023,0.249,0.022
			c0.715,0.004,1.43,0.008,2.145,0.011c0.007,0.172,0.043,0.341,0.109,0.5C69.836,225.114,69.441,225.326,69.21,225.768z
			 M79.888,217.976c-0.394-0.004-0.788-0.004-1.182-0.005c0.646-0.545,1.302-1.075,1.967-1.591
			C80.413,216.915,80.151,217.447,79.888,217.976z M84.42,226.842c-0.715-0.119-1.434-0.18-2.184-0.191
			c0.512-0.065,1.013-0.181,1.506-0.324c0.297-0.014,0.589-0.078,0.857-0.205C84.565,226.4,84.506,226.642,84.42,226.842z
			 M107.647,205.119c-0.345-0.454-0.898-0.745-1.528-0.571c-0.008,0.002-0.017,0.004-0.025,0.007
			c-0.163-0.105-0.351-0.184-0.594-0.187c-0.157-0.002-0.326-0.002-0.485-0.004c1.262-0.022,2.539-0.109,3.796-0.296
			C108.426,204.422,108.041,204.777,107.647,205.119z"/>
	</g>
	<g>
		<path fill="none" stroke="#000000" stroke-width="3" stroke-linecap="round" stroke-linejoin="round" d="M338.366,87.838
			l15.021-16.81l4.826-4.83l16.991-9.657l9.833-3.577l-14.664-6.615l-15.737-3.399l-16.094-0.893l-15.913,2.146l-7.335,2.146
			l-13.409,4.112l-4.831,0.896l-23.605-3.934l-17.701-5.903l-18.599-3.754l-25.933-1.789l5.365-2.326l4.291-2.503l5.547-3.754
			l5.365-5.903l4.292-6.08l-19.495,8.048l-10.73,0.893l-12.339-1.789l-13.948-4.649l-15.737-2.503l12.876-8.226l-10.73-1.431
			l-10.729-0.535l-10.73,0.357L133.784,6.47L123.233,7.9c0,0-10.462,2.307-10.55,2.326c-4.867,1.073-9.272,3.604-14.007,5.116
			c-2.375,0.759-4.821,2.319-7.027,3.665c-4.106,2.506-8.034,4.977-12.049,7.586c-8.131,5.285-14.938,13.33-20.842,21.164
			c-3.483,4.621-4.019,8.605-1.767,13.918c2.038,4.807,5.095,8.476,3.424,14.072c-1.374,4.601-4.121,9.542-7.156,13.161
			c-3.483,4.153-5.146,8.812-7.844,13.165c-2.076,3.349-3.571,6.969-2.497,11c0.875,3.289,4.365,6.585,7.331,8.126
			c3.49,1.813,6.619,1.46,8.075,6.133c0.932,2.99-0.733,5.468,1.1,7.99c1.605,2.209,4.604,2.512,6.258,4.341
			c2.345,2.594-0.917,4.381-0.235,6.956c0.94,3.553,6.472,1.674,8.469,5.112c1.594,2.746-0.544,4.438-1.5,6.684
			c-1.711,4.021-1.252,11.712,0.567,15.601c2.483,5.307,7.421,4.813,12.35,5.317c5.313,0.545,10.95,0.401,16.333,0.665
			c7.091,0.346,14.254-0.057,21.074,0.26c10.124,0.471,20.48-0.504,30.636-0.504c10.577,0,21.154,0,31.731,0l7.689-4.292
			l13.054-5.007l13.058-3.399l6.614-0.357l6.977,0.538l6.614,1.25l-2.322-1.788l-1.97-1.608l10.196-2.326l9.832-3.039l9.657-3.576
			l18.598-9.299l17.35-11.803l7.687-6.795l18.956-13.949l13.772-3.399h7.868l10.729,1.968l-11.803-5.722l-13.057-2.684l-12.876,0.18
			l-8.941,1.25l11.445-6.08L338.366,87.838z"/>
		<path fill="none" stroke="#000000" stroke-width="3" stroke-linecap="round" stroke-linejoin="round" d="M348.738,51.357
			l-4.831-2.861l-6.972-2.326l-6.977-1.073l-5.723,0.357l-8.941,0.896l-13.409,4.112l-4.831,0.896l-6.614,1.788l-7.868,1.608
			l-8.227,1.073h-8.407l-7.868-0.535l-8.045-1.788l-10.911-3.577l-10.906-3.399l-11.269-2.324l-11.088-1.611l-11.444-1.073h-13.77
			l16.095-2.504l10.375-1.788l4.11-1.25l5.365-2.326l4.291-2.503l5.547-3.754l-5.365,1.073l-8.583,1.25l-9.123,0.538
			c0,0-8.742-0.18-8.763-0.181c-5.868-0.121-11.739-0.117-17.509-0.256c-6.628-0.161-13.085-3.149-19.67-3.893
			c-5.713-0.645-11.071-1.331-17.074-1.259c-5.369,0.064-10.992,0.358-16.333,0.684c-2.943,0.18-5.223,0.403-8,1.39
			c-5.043,1.793-9.115,2.396-13.727,5.458c-4.169,2.767-7.627,6.457-10.473,10.55c-5.561,8.001-8.813,17.377-11.733,26.593
			c-2.174,6.862,1.941,10.743,2.597,17.049c0.569,5.473-3.832,10.188-5.57,15.032c-1.001,2.79-3.499,8.004-2.76,10.911
			c1.531,6.021,11.055,6.025,14.666,9.333c3.356,3.076-0.516,6.602-1.667,10.667c-0.842,2.975-2.484,6.018-1.999,8.999
			c0.271,1.666,5.399,2.298,5.666,4.001c0.519,3.323-2.738,8.023,2.333,10.667c-0.385,10.965,6.903,10.412,16.333,11.333
			c5.579,0.545,6.273,0.295,11.667-1c1.129-0.271,4.152-1.623,5.333-2c1.652-0.527,5.527-1.572,7-2.333
			c2.3-1.189,3.539-1.147,6-2.333c5.261-2.534,12.061-2.385,17.901-2.624l8.763-0.358l8.941,0.896l-8.047,3.934l-4.471,2.861
			l-3.219,2.681l-4.829,4.472l8.047-0.896l8.405-1.25l7.869-1.431l8.405-1.968l17.704-3.934l9.299-0.893l8.941,0.358l6.262,1.608
			l5.184,1.969l10.196-2.326l9.832-3.039l9.657-3.576l-6.972,1.25l-5.547,0.358l-5.722-0.177l-5.541-1.073l-5.365-1.788
			l-5.007-2.504l7.329-5.007l4.831-2.326l7.511-2.504l12.694-3.039l7.511-2.503l7.334-3.399l7.153-3.754l6.796-5.007l-7.692-0.18
			l-7.688,0.18l-8.05,1.073l-13.233,3.934l13.233-9.122l9.48-5.365l10.015-4.827l9.657-3.757l-14.307,0.358l-11.445-0.358
			l7.511-1.073l7.511-1.789l6.972-2.503l6.978-3.039l6.438-3.934l6.256-4.65l10.554-10.552l8.941-11.445l4.469-3.934l4.831-3.396
			l10.729-5.903L348.738,51.357z"/>
		<polygon fill="none" stroke="#000000" stroke-width="3" stroke-linecap="round" stroke-linejoin="round" points="168.656,143.99 
			172.232,144.705 175.988,145.24 179.743,145.24 183.677,145.063 187.254,144.348 191.009,143.452 194.586,142.379 
			198.162,140.591 201.739,138.445 204.961,137.014 208.355,135.764 211.574,134.868 215.333,134.333 219.085,133.976 
			222.844,134.153 226.238,134.868 229.639,135.583 225.347,133.618 220.873,132.187 216.224,131.114 211.574,130.219 
			206.749,129.861 202.1,129.861 197.447,130.219 192.619,130.576 187.969,131.472 183.499,133.08 179.028,134.511 174.557,136.479 
			170.265,138.802 166.331,141.486 164.9,142.379 		"/>
		<polygon fill="none" stroke="#000000" stroke-width="3" stroke-linecap="round" stroke-linejoin="round" points="168.656,143.99 
			172.232,144.705 175.988,145.24 179.743,145.24 183.677,145.063 187.254,144.348 191.009,143.452 194.586,142.379 
			198.162,140.591 201.739,138.445 204.961,137.014 208.355,135.764 211.574,134.868 215.333,134.333 219.085,133.976 
			222.844,134.153 226.238,134.868 229.639,135.583 225.347,133.618 220.873,132.187 216.224,131.114 211.574,130.219 
			206.749,129.861 202.1,129.861 197.447,130.219 192.619,130.576 187.969,131.472 183.499,133.08 179.028,134.511 174.557,136.479 
			170.265,138.802 166.331,141.486 164.9,142.379 		"/>
		<polygon fill="none" stroke="#000000" stroke-width="3" stroke-linecap="round" stroke-linejoin="round" points="101.417,131.472 
			105.529,133.08 109.821,134.333 114.113,135.406 118.405,135.941 123.055,136.122 127.346,135.941 131.638,135.583 
			136.109,134.868 140.222,133.438 144.335,132.187 146.66,131.114 151.31,129.326 155.422,128.611 159.356,127.896 163.47,127.715 
			167.225,127.715 171.338,128.253 175.272,128.968 179.028,130.219 175.272,127.896 171.159,126.107 167.046,124.496 
			162.754,123.246 158.462,122.53 153.992,121.815 149.521,121.635 145.229,121.815 140.58,122.35 135.93,123.246 139.328,120.204 
			142.368,118.059 145.587,116.093 148.806,114.482 152.204,113.409 155.959,112.516 159.714,112.159 163.47,111.978 
			167.046,112.159 170.802,112.516 174.199,113.231 181.531,114.482 188.685,115.197 195.837,115.377 203.349,115.377 
			210.502,115.197 218.013,114.482 225.347,113.409 232.318,112.159 239.472,110.37 246.449,108.402 248.952,107.687 
			245.909,108.402 240.902,109.475 235.719,110.19 230.53,110.728 225.347,110.905 219.982,110.37 214.975,110.013 209.61,108.939 
			204.603,107.687 199.771,105.898 194.407,104.29 188.685,102.502 183.141,101.249 177.418,100.533 173.126,99.998 175.272,98.925 
			178.67,96.957 182.425,95.168 186.181,93.918 190.115,92.665 194.407,92.13 198.341,91.772 193.513,90.161 188.685,89.269 
			183.499,88.553 178.491,88.015 173.484,88.015 168.477,88.015 163.47,88.73 158.462,89.626 153.455,91.057 148.806,92.665 
			144.156,94.811 139.507,97.137 135.215,99.818 131.102,102.502 126.989,105.721 123.412,109.117 120.015,112.874 117.153,116.808 
			112.146,124.496 110.894,126.107 109.643,127.715 108.033,129.326 106.245,130.219 104.099,131.114 		"/>
		<polygon fill="none" stroke="#000000" stroke-width="3" stroke-linecap="round" stroke-linejoin="round" points="101.417,131.472 
			105.529,133.08 109.821,134.333 114.113,135.406 118.405,135.941 123.055,136.122 127.346,135.941 131.638,135.583 
			136.109,134.868 140.222,133.438 144.335,132.187 146.66,131.114 151.31,129.326 155.422,128.611 159.356,127.896 163.47,127.715 
			167.225,127.715 171.338,128.253 175.272,128.968 179.028,130.219 175.272,127.896 171.159,126.107 167.046,124.496 
			162.754,123.246 158.462,122.53 153.992,121.815 149.521,121.635 145.229,121.815 140.58,122.35 135.93,123.246 139.328,120.204 
			142.368,118.059 145.587,116.093 148.806,114.482 152.204,113.409 155.959,112.516 159.714,112.159 163.47,111.978 
			167.046,112.159 170.802,112.516 174.199,113.231 181.531,114.482 188.685,115.197 195.837,115.377 203.349,115.377 
			210.502,115.197 218.013,114.482 225.347,113.409 232.318,112.159 239.472,110.37 246.449,108.402 248.952,107.687 
			245.909,108.402 240.902,109.475 235.719,110.19 230.53,110.728 225.347,110.905 219.982,110.37 214.975,110.013 209.61,108.939 
			204.603,107.687 199.771,105.898 194.407,104.29 188.685,102.502 183.141,101.249 177.418,100.533 173.126,99.998 175.272,98.925 
			178.67,96.957 182.425,95.168 186.181,93.918 190.115,92.665 194.407,92.13 198.341,91.772 193.513,90.161 188.685,89.269 
			183.499,88.553 178.491,88.015 173.484,88.015 168.477,88.015 163.47,88.73 158.462,89.626 153.455,91.057 148.806,92.665 
			144.156,94.811 139.507,97.137 135.215,99.818 131.102,102.502 126.989,105.721 123.412,109.117 120.015,112.874 117.153,116.808 
			112.146,124.496 110.894,126.107 109.643,127.715 108.033,129.326 106.245,130.219 104.099,131.114 		"/>
		<polygon fill="none" stroke="#000000" stroke-width="3" stroke-linecap="round" stroke-linejoin="round" points="261.646,74.604 
			257.894,78.181 254.317,81.22 250.559,84.081 246.625,86.584 242.515,88.73 238.041,90.699 233.573,92.13 229.1,93.38 
			224.45,94.276 219.982,94.811 214.975,94.991 210.502,94.811 205.852,94.276 213.362,89.446 219.085,86.407 224.808,83.366 
			230.712,81.042 236.792,79.074 242.515,77.466 248.413,76.57 254.851,75.14 		"/>
		<polygon fill="none" stroke="#000000" stroke-width="3" stroke-linecap="round" stroke-linejoin="round" points="261.646,74.604 
			257.894,78.181 254.317,81.22 250.559,84.081 246.625,86.584 242.515,88.73 238.041,90.699 233.573,92.13 229.1,93.38 
			224.45,94.276 219.982,94.811 214.975,94.991 210.502,94.811 205.852,94.276 213.362,89.446 219.085,86.407 224.808,83.366 
			230.712,81.042 236.792,79.074 242.515,77.466 248.413,76.57 254.851,75.14 		"/>
		
			<line fill="none" stroke="#000000" stroke-width="3" stroke-linecap="round" stroke-linejoin="round" x1="79.778" y1="179.755" x2="185.108" y2="179.755"/>
		<polygon fill="none" stroke="#000000" stroke-width="3" stroke-linecap="round" stroke-linejoin="round" points="79.778,179.755 
			79.778,194.419 105.172,194.419 118.405,194.419 125.021,194.419 169.192,194.419 179.743,194.419 185.108,194.419 
			185.108,179.755 		"/>
		<polygon fill="none" stroke="#000000" stroke-width="3" stroke-linecap="round" stroke-linejoin="round" points="79.778,179.755 
			79.778,194.419 105.172,194.419 118.405,194.419 125.021,194.419 169.192,194.419 179.743,194.419 185.108,194.419 
			185.108,179.755 		"/>
		<polygon fill="none" stroke="#000000" stroke-width="3" stroke-linecap="round" stroke-linejoin="round" points="53.669,204.969 
			95.694,204.969 105.351,204.969 118.763,204.969 125.021,204.969 168.834,204.969 179.564,204.969 211.217,204.969 
			211.574,203.896 211.932,202.107 211.932,200.142 211.398,198.173 210.325,196.565 208.713,195.135 206.392,194.419 
			185.108,194.419 179.564,194.419 169.192,194.419 125.021,194.419 118.763,194.419 105.351,194.419 79.778,194.419 
			58.319,194.419 56.173,195.135 54.385,196.565 53.49,198.173 52.775,200.142 52.775,202.107 53.312,203.896 		"/>
		<polygon fill="none" stroke="#000000" stroke-width="3" stroke-linecap="round" stroke-linejoin="round" points="53.669,204.969 
			95.694,204.969 105.351,204.969 118.763,204.969 125.021,204.969 168.834,204.969 179.564,204.969 211.217,204.969 
			211.574,203.896 211.932,202.107 211.932,200.142 211.398,198.173 210.325,196.565 208.713,195.135 206.392,194.419 
			185.108,194.419 179.564,194.419 169.192,194.419 125.021,194.419 118.763,194.419 105.351,194.419 79.778,194.419 
			58.319,194.419 56.173,195.135 54.385,196.565 53.49,198.173 52.775,200.142 52.775,202.107 53.312,203.896 		"/>
		<polygon fill="none" stroke="#000000" stroke-width="3" stroke-linecap="round" stroke-linejoin="round" points="75.844,226.071 
			82.282,226.071 86.216,226.071 91.581,226.071 96.23,226.071 201.202,226.071 211.932,226.071 242.157,226.071 241.617,225.536 
			241.26,225.178 238.041,220.706 234.646,216.952 230.53,213.733 226.238,210.691 221.589,208.368 216.764,206.399 
			211.217,204.969 186.36,204.969 179.564,204.969 169.192,204.969 125.021,204.969 118.763,204.969 105.351,204.969 
			53.669,204.969 48.483,206.399 43.655,208.368 39.184,210.691 34.892,213.733 30.958,216.952 27.203,220.706 23.984,225.178 
			23.805,225.536 23.447,226.071 71.91,226.071 		"/>
		<polygon fill="none" stroke="#000000" stroke-width="3" stroke-linecap="round" stroke-linejoin="round" points="75.844,226.071 
			82.282,226.071 86.216,226.071 91.581,226.071 96.23,226.071 201.202,226.071 211.932,226.071 242.157,226.071 241.617,225.536 
			241.26,225.178 238.041,220.706 234.646,216.952 230.53,213.733 226.238,210.691 221.589,208.368 216.764,206.399 
			211.217,204.969 186.36,204.969 179.564,204.969 169.192,204.969 125.021,204.969 118.763,204.969 105.351,204.969 
			53.669,204.969 48.483,206.399 43.655,208.368 39.184,210.691 34.892,213.733 30.958,216.952 27.203,220.706 23.984,225.178 
			23.805,225.536 23.447,226.071 71.91,226.071 		"/>
		<polygon fill="none" stroke="#000000" stroke-width="3" stroke-linecap="round" stroke-linejoin="round" points="19.692,234.834 
			8.962,234.834 8.962,230.542 8.962,226.071 15.937,226.071 23.447,226.071 71.91,226.071 75.844,226.071 82.282,226.071 
			86.216,226.071 91.581,226.071 95.694,226.071 201.202,226.071 211.932,226.071 242.157,226.071 259.324,226.071 259.324,234.834 
			243.048,234.834 211.932,234.834 205.137,234.834 201.202,234.834 194.765,234.834 91.581,234.834 87.289,234.834 82.282,234.834 
			77.453,234.834 71.91,234.834 49.377,234.834 		"/>
		<polygon fill="none" stroke="#000000" stroke-width="3" stroke-linecap="round" stroke-linejoin="round" points="19.692,234.834 
			8.962,234.834 8.962,230.542 8.962,226.071 15.937,226.071 23.447,226.071 71.91,226.071 75.844,226.071 82.282,226.071 
			86.216,226.071 91.581,226.071 95.694,226.071 201.202,226.071 211.932,226.071 242.157,226.071 259.324,226.071 259.324,234.834 
			243.048,234.834 211.932,234.834 205.137,234.834 201.202,234.834 194.765,234.834 91.581,234.834 87.289,234.834 82.282,234.834 
			77.453,234.834 71.91,234.834 49.377,234.834 		"/>
		<polygon fill="none" stroke="#000000" stroke-width="3" stroke-linecap="round" stroke-linejoin="round" points="86.574,234.834 
			82.282,234.834 77.453,234.834 71.91,234.834 49.377,234.834 19.692,234.834 19.692,243.596 37.038,243.596 49.735,243.596 
			77.274,243.596 87.11,243.596 132.532,243.596 188.863,243.596 194.765,243.596 199.771,243.596 205.137,243.596 227.669,243.596 
			243.048,243.596 243.048,234.834 211.932,234.834 205.137,234.834 201.202,234.834 194.765,234.834 91.581,234.834 		"/>
		<polygon fill="none" stroke="#000000" stroke-width="3" stroke-linecap="round" stroke-linejoin="round" points="86.574,234.834 
			82.282,234.834 77.453,234.834 71.91,234.834 49.377,234.834 19.692,234.834 19.692,243.596 37.038,243.596 49.735,243.596 
			77.274,243.596 87.11,243.596 132.532,243.596 188.863,243.596 194.765,243.596 199.771,243.596 205.137,243.596 227.669,243.596 
			243.048,243.596 243.048,234.834 211.932,234.834 205.137,234.834 201.202,234.834 194.765,234.834 91.581,234.834 		"/>
		<polygon fill="none" stroke="#000000" stroke-width="3" stroke-linecap="round" stroke-linejoin="round" points="199.771,243.596 
			205.137,243.596 227.669,243.596 227.669,252.537 199.771,252.537 188.863,252.537 37.038,252.537 37.038,243.596 
			188.863,243.596 194.765,243.596 		"/>
		<polygon fill="none" stroke="#000000" stroke-width="3" stroke-linecap="round" stroke-linejoin="round" points="199.771,243.596 
			205.137,243.596 227.669,243.596 227.669,252.537 199.771,252.537 188.863,252.537 37.038,252.537 37.038,243.596 
			188.863,243.596 194.765,243.596 		"/>
		<polygon fill="none" stroke="#000000" stroke-width="3" stroke-linecap="round" stroke-linejoin="round" points="227.669,252.537 
			221.946,262.374 216.939,270.778 214.26,276.323 210.859,273.639 207.641,271.493 204.063,269.705 200.309,268.454 
			196.553,267.917 192.619,267.559 188.863,267.917 184.929,268.454 180.995,269.169 177.239,270.778 169.908,274.177 
			158.462,281.688 147.375,289.733 140.222,295.278 132.89,301.179 135.93,388.269 124.127,388.269 114.649,388.269 
			101.417,388.269 84.785,388.269 82.639,374.498 79.957,360.729 76.917,347.316 73.34,333.905 69.048,320.672 64.22,307.439 
			58.855,294.741 53.133,282.045 46.874,269.705 39.899,257.544 37.038,252.537 		"/>
		<polygon fill="none" stroke="#000000" stroke-width="3" stroke-linecap="round" stroke-linejoin="round" points="227.669,252.537 
			221.946,262.374 216.939,270.778 214.26,276.323 210.859,273.639 207.641,271.493 204.063,269.705 200.309,268.454 
			196.553,267.917 192.619,267.559 188.863,267.917 184.929,268.454 180.995,269.169 177.239,270.778 169.908,274.177 
			158.462,281.688 147.375,289.733 140.222,295.278 132.89,301.179 135.93,388.269 124.127,388.269 114.649,388.269 
			101.417,388.269 84.785,388.269 82.639,374.498 79.957,360.729 76.917,347.316 73.34,333.905 69.048,320.672 64.22,307.439 
			58.855,294.741 53.133,282.045 46.874,269.705 39.899,257.544 37.038,252.537 		"/>
		<polygon fill="none" stroke="#000000" stroke-width="3" stroke-linecap="round" stroke-linejoin="round" points="135.93,388.269 
			134.5,344.993 132.89,301.179 118.763,313.519 124.127,388.269 		"/>
		<polygon fill="none" stroke="#000000" stroke-width="3" stroke-linecap="round" stroke-linejoin="round" points="135.93,388.269 
			134.5,344.993 132.89,301.179 118.763,313.519 124.127,388.269 		"/>
		<polygon fill="none" stroke="#000000" stroke-width="3" stroke-linecap="round" stroke-linejoin="round" points="101.417,388.269 
			94.621,340.521 110.358,321.922 114.649,388.269 		"/>
		<polygon fill="none" stroke="#000000" stroke-width="3" stroke-linecap="round" stroke-linejoin="round" points="101.417,388.269 
			94.621,340.521 110.358,321.922 114.649,388.269 		"/>
		<polygon fill="none" stroke="#000000" stroke-width="3" stroke-linecap="round" stroke-linejoin="round" points="180.637,388.269 
			181.531,382.009 183.856,368.598 186.539,354.827 190.115,341.416 193.691,328.003 198.162,314.77 202.99,301.894 
			208.355,289.018 214.26,276.323 210.859,273.639 207.641,271.493 204.063,269.705 200.309,268.454 196.553,267.917 
			192.619,267.559 188.863,267.917 184.929,268.454 180.995,269.169 177.239,270.778 169.908,274.177 158.462,281.688 
			147.375,289.733 140.222,295.278 132.89,301.179 134.5,344.993 135.93,388.269 		"/>
		<polygon fill="none" stroke="#000000" stroke-width="3" stroke-linecap="round" stroke-linejoin="round" points="180.637,388.269 
			181.531,382.009 183.856,368.598 186.539,354.827 190.115,341.416 193.691,328.003 198.162,314.77 202.99,301.894 
			208.355,289.018 214.26,276.323 210.859,273.639 207.641,271.493 204.063,269.705 200.309,268.454 196.553,267.917 
			192.619,267.559 188.863,267.917 184.929,268.454 180.995,269.169 177.239,270.778 169.908,274.177 158.462,281.688 
			147.375,289.733 140.222,295.278 132.89,301.179 134.5,344.993 135.93,388.269 		"/>
		<polygon fill="none" stroke="#000000" stroke-width="3" stroke-linecap="round" stroke-linejoin="round" points="180.637,388.269 
			182.247,388.627 183.499,389.52 184.571,391.129 185.108,392.56 185.108,394.169 184.571,395.778 183.499,397.03 182.247,397.925 
			180.637,398.64 177.239,398.64 162.576,398.64 153.098,398.64 88.362,398.64 84.785,398.64 83.176,397.925 81.924,397.03 
			80.851,395.778 80.314,394.169 80.314,392.56 80.851,391.129 81.924,389.52 83.176,388.627 84.785,388.269 101.417,388.269 
			114.649,388.269 124.127,388.269 135.93,388.269 153.098,388.269 162.576,388.269 		"/>
		<polygon fill="none" stroke="#000000" stroke-width="3" stroke-linecap="round" stroke-linejoin="round" points="180.637,388.269 
			182.247,388.627 183.499,389.52 184.571,391.129 185.108,392.56 185.108,394.169 184.571,395.778 183.499,397.03 182.247,397.925 
			180.637,398.64 177.239,398.64 162.576,398.64 153.098,398.64 88.362,398.64 84.785,398.64 83.176,397.925 81.924,397.03 
			80.851,395.778 80.314,394.169 80.314,392.56 80.851,391.129 81.924,389.52 83.176,388.627 84.785,388.269 101.417,388.269 
			114.649,388.269 124.127,388.269 135.93,388.269 153.098,388.269 162.576,388.269 		"/>
		<polygon fill="none" stroke="#000000" stroke-width="3" stroke-linecap="round" stroke-linejoin="round" points="88.362,398.64 
			90.15,414.198 93.905,454.076 97.482,494.134 99.807,534.013 101.774,574.249 102.489,614.307 103.026,654.364 102.489,694.601 
			117.153,694.601 127.525,694.601 132.532,694.601 141.295,694.601 140.222,553.862 138.792,413.304 143.262,410.979 
			148.09,408.833 152.561,407.938 157.568,407.402 160.787,407.938 164.9,408.833 168.298,410.264 171.517,412.768 174.736,415.808 
			177.418,398.64 		"/>
		<polygon fill="none" stroke="#000000" stroke-width="3" stroke-linecap="round" stroke-linejoin="round" points="88.362,398.64 
			90.15,414.198 93.905,454.076 97.482,494.134 99.807,534.013 101.774,574.249 102.489,614.307 103.026,654.364 102.489,694.601 
			117.153,694.601 127.525,694.601 132.532,694.601 141.295,694.601 140.222,553.862 138.792,413.304 143.262,410.979 
			148.09,408.833 152.561,407.938 157.568,407.402 160.787,407.938 164.9,408.833 168.298,410.264 171.517,412.768 174.736,415.808 
			177.418,398.64 		"/>
		<polygon fill="none" stroke="#000000" stroke-width="3" stroke-linecap="round" stroke-linejoin="round" points="174.736,415.808 
			171.517,412.768 168.298,410.264 164.9,408.833 160.787,407.938 157.568,407.402 152.561,407.938 148.09,408.833 143.262,410.979 
			138.792,413.304 140.222,553.862 141.295,694.601 163.827,694.601 163.47,682.262 162.754,644.171 162.754,605.901 
			163.47,567.812 164.9,529.899 167.225,491.631 170.265,453.719 		"/>
		<polygon fill="none" stroke="#000000" stroke-width="3" stroke-linecap="round" stroke-linejoin="round" points="174.736,415.808 
			171.517,412.768 168.298,410.264 164.9,408.833 160.787,407.938 157.568,407.402 152.561,407.938 148.09,408.833 143.262,410.979 
			138.792,413.304 140.222,553.862 141.295,694.601 163.827,694.601 163.47,682.262 162.754,644.171 162.754,605.901 
			163.47,567.812 164.9,529.899 167.225,491.631 170.265,453.719 		"/>
		<polygon fill="none" stroke="#000000" stroke-width="3" stroke-linecap="round" stroke-linejoin="round" points="127.525,694.601 
			127.883,649.894 127.883,604.471 126.81,559.228 125.558,514.163 122.518,467.847 119.657,423.497 109.821,434.584 
			112.146,470.35 115.186,508.798 118.226,559.942 117.153,694.601 		"/>
		<polygon fill="none" stroke="#000000" stroke-width="3" stroke-linecap="round" stroke-linejoin="round" points="127.525,694.601 
			127.883,649.894 127.883,604.471 126.81,559.228 125.558,514.163 122.518,467.847 119.657,423.497 109.821,434.584 
			112.146,470.35 115.186,508.798 118.226,559.942 117.153,694.601 		"/>
		<polygon fill="none" stroke="#000000" stroke-width="3" stroke-linecap="round" stroke-linejoin="round" points="141.295,694.601 
			140.222,553.862 138.792,413.304 127.883,420.636 130.387,491.631 131.817,559.228 132.532,627.004 132.532,694.601 		"/>
		<polygon fill="none" stroke="#000000" stroke-width="3" stroke-linecap="round" stroke-linejoin="round" points="141.295,694.601 
			140.222,553.862 138.792,413.304 127.883,420.636 130.387,491.631 131.817,559.228 132.532,627.004 132.532,694.601 		"/>
		<polygon fill="none" stroke="#000000" stroke-width="3" stroke-linecap="round" stroke-linejoin="round" points="156.495,704.794 
			163.827,704.794 169.908,704.794 170.802,704.436 172.054,703.542 172.59,702.469 173.126,701.217 173.126,699.965 
			173.126,698.535 172.769,697.283 172.054,696.031 170.98,695.137 169.908,694.601 163.827,694.601 156.495,694.601 
			147.554,694.601 141.295,694.601 132.532,694.601 127.525,694.601 117.153,694.601 102.489,694.601 96.588,694.601 
			95.336,695.137 94.442,696.031 93.548,697.283 93.011,698.535 93.011,699.965 93.011,701.217 93.727,702.469 94.442,703.542 
			95.694,704.436 96.588,704.794 101.953,704.794 117.332,704.794 127.883,704.794 137.897,704.794 147.554,704.794 		"/>
		<polygon fill="none" stroke="#000000" stroke-width="3" stroke-linecap="round" stroke-linejoin="round" points="156.495,704.794 
			163.827,704.794 169.908,704.794 170.802,704.436 172.054,703.542 172.59,702.469 173.126,701.217 173.126,699.965 
			173.126,698.535 172.769,697.283 172.054,696.031 170.98,695.137 169.908,694.601 163.827,694.601 156.495,694.601 
			147.554,694.601 141.295,694.601 132.532,694.601 127.525,694.601 117.153,694.601 102.489,694.601 96.588,694.601 
			95.336,695.137 94.442,696.031 93.548,697.283 93.011,698.535 93.011,699.965 93.011,701.217 93.727,702.469 94.442,703.542 
			95.694,704.436 96.588,704.794 101.953,704.794 117.332,704.794 127.883,704.794 137.897,704.794 147.554,704.794 		"/>
		<polygon fill="none" stroke="#000000" stroke-width="3" stroke-linecap="round" stroke-linejoin="round" points="137.897,704.794 
			137.897,770.781 131.996,770.781 123.591,770.781 118.763,770.781 101.953,704.794 		"/>
		<polygon fill="none" stroke="#000000" stroke-width="3" stroke-linecap="round" stroke-linejoin="round" points="137.897,704.794 
			137.897,770.781 131.996,770.781 123.591,770.781 118.763,770.781 101.953,704.794 		"/>
		<polygon fill="none" stroke="#000000" stroke-width="3" stroke-linecap="round" stroke-linejoin="round" points="137.897,704.794 
			137.897,770.781 147.554,770.781 163.827,704.794 		"/>
		<polygon fill="none" stroke="#000000" stroke-width="3" stroke-linecap="round" stroke-linejoin="round" points="137.897,704.794 
			137.897,770.781 147.554,770.781 163.827,704.794 		"/>
		<polygon fill="none" stroke="#000000" stroke-width="3" stroke-linecap="round" stroke-linejoin="round" points="123.591,770.781 
			127.883,770.781 127.883,704.794 117.153,704.794 		"/>
		<polygon fill="none" stroke="#000000" stroke-width="3" stroke-linecap="round" stroke-linejoin="round" points="123.591,770.781 
			127.883,770.781 127.883,704.794 117.153,704.794 		"/>
		
			<rect x="127.883" y="704.794" fill="none" stroke="#000000" stroke-width="3" stroke-linecap="round" stroke-linejoin="round" width="10.015" height="65.987"/>
		
			<rect x="127.883" y="704.794" fill="none" stroke="#000000" stroke-width="3" stroke-linecap="round" stroke-linejoin="round" width="10.015" height="65.987"/>
		
			<rect x="105.351" y="194.419" fill="none" stroke="#000000" stroke-width="3" stroke-linecap="round" stroke-linejoin="round" width="13.412" height="10.549"/>
		
			<rect x="105.351" y="194.419" fill="none" stroke="#000000" stroke-width="3" stroke-linecap="round" stroke-linejoin="round" width="13.412" height="10.549"/>
		
			<rect x="118.763" y="194.419" fill="none" stroke="#000000" stroke-width="3" stroke-linecap="round" stroke-linejoin="round" width="6.259" height="10.549"/>
		
			<rect x="118.763" y="194.419" fill="none" stroke="#000000" stroke-width="3" stroke-linecap="round" stroke-linejoin="round" width="6.259" height="10.549"/>
		
			<rect x="169.192" y="194.419" fill="none" stroke="#000000" stroke-width="3" stroke-linecap="round" stroke-linejoin="round" width="10.372" height="10.549"/>
		
			<rect x="169.192" y="194.419" fill="none" stroke="#000000" stroke-width="3" stroke-linecap="round" stroke-linejoin="round" width="10.372" height="10.549"/>
		<polygon fill="none" stroke="#000000" stroke-width="3" stroke-linecap="round" stroke-linejoin="round" points="118.763,204.969 
			115.544,205.684 112.683,206.399 109.285,207.473 103.741,209.441 99.628,211.229 95.694,213.195 92.117,215.699 90.15,217.845 
			88.362,219.813 87.825,221.063 87.11,222.316 86.574,223.567 86.395,224.82 86.216,226.071 75.844,226.071 76.022,225.178 
			76.738,222.136 77.096,220.706 77.811,219.275 78.526,217.845 79.242,216.414 80.314,215.164 81.209,214.268 82.818,212.66 
			84.249,211.764 86.395,210.514 88.362,209.441 90.15,208.545 92.296,207.473 94.621,206.757 96.767,206.222 98.734,205.684 
			103.205,204.969 105.351,204.969 		"/>
		<polygon fill="none" stroke="#000000" stroke-width="3" stroke-linecap="round" stroke-linejoin="round" points="118.763,204.969 
			115.544,205.684 112.683,206.399 109.285,207.473 103.741,209.441 99.628,211.229 95.694,213.195 92.117,215.699 90.15,217.845 
			88.362,219.813 87.825,221.063 87.11,222.316 86.574,223.567 86.395,224.82 86.216,226.071 75.844,226.071 76.022,225.178 
			76.738,222.136 77.096,220.706 77.811,219.275 78.526,217.845 79.242,216.414 80.314,215.164 81.209,214.268 82.818,212.66 
			84.249,211.764 86.395,210.514 88.362,209.441 90.15,208.545 92.296,207.473 94.621,206.757 96.767,206.222 98.734,205.684 
			103.205,204.969 105.351,204.969 		"/>
		<polygon fill="none" stroke="#000000" stroke-width="3" stroke-linecap="round" stroke-linejoin="round" points="95.873,226.071 
			96.946,223.567 98.019,222.136 99.986,219.098 102.489,216.771 104.814,214.806 109.285,211.764 113.755,209.441 119.299,206.757 
			125.021,204.969 118.763,204.969 115.544,205.684 112.683,206.399 109.285,207.473 103.741,209.441 100.522,210.691 
			97.482,212.302 95.694,213.195 92.117,215.699 90.15,217.845 88.362,219.813 87.825,221.063 87.11,222.316 86.574,223.567 
			86.395,224.82 86.216,226.071 		"/>
		<polygon fill="none" stroke="#000000" stroke-width="3" stroke-linecap="round" stroke-linejoin="round" points="95.873,226.071 
			96.946,223.567 98.019,222.136 99.986,219.098 102.489,216.771 104.814,214.806 109.285,211.764 113.755,209.441 119.299,206.757 
			125.021,204.969 118.763,204.969 115.544,205.684 112.683,206.399 109.285,207.473 103.741,209.441 100.522,210.691 
			97.482,212.302 95.694,213.195 92.117,215.699 90.15,217.845 88.362,219.813 87.825,221.063 87.11,222.316 86.574,223.567 
			86.395,224.82 86.216,226.071 		"/>
		
			<rect x="71.91" y="226.071" fill="none" stroke="#000000" stroke-width="3" stroke-linecap="round" stroke-linejoin="round" width="10.372" height="8.764"/>
		
			<rect x="71.91" y="226.071" fill="none" stroke="#000000" stroke-width="3" stroke-linecap="round" stroke-linejoin="round" width="10.372" height="8.764"/>
		
			<rect x="82.282" y="226.071" fill="none" stroke="#000000" stroke-width="3" stroke-linecap="round" stroke-linejoin="round" width="9.299" height="8.764"/>
		
			<rect x="82.282" y="226.071" fill="none" stroke="#000000" stroke-width="3" stroke-linecap="round" stroke-linejoin="round" width="9.299" height="8.764"/>
		
			<rect x="49.377" y="234.834" fill="none" stroke="#000000" stroke-width="3" stroke-linecap="round" stroke-linejoin="round" width="28.076" height="8.761"/>
		
			<rect x="49.377" y="234.834" fill="none" stroke="#000000" stroke-width="3" stroke-linecap="round" stroke-linejoin="round" width="28.076" height="8.761"/>
		
			<rect x="77.453" y="234.834" fill="none" stroke="#000000" stroke-width="3" stroke-linecap="round" stroke-linejoin="round" width="9.121" height="8.761"/>
		
			<rect x="77.453" y="234.834" fill="none" stroke="#000000" stroke-width="3" stroke-linecap="round" stroke-linejoin="round" width="9.121" height="8.761"/>
		<polygon fill="none" stroke="#000000" stroke-width="3" stroke-linecap="round" stroke-linejoin="round" points="211.932,226.071 
			209.61,223.032 207.106,220.171 204.245,217.845 201.561,215.164 198.341,212.66 195.48,210.333 192.261,208.368 188.863,206.222 
			186.36,204.969 179.564,204.969 180.816,205.684 183.856,207.653 186.539,209.976 189.4,212.479 192.082,214.983 194.586,217.487 
			196.732,220.171 199.057,223.032 201.202,226.071 		"/>
		<polygon fill="none" stroke="#000000" stroke-width="3" stroke-linecap="round" stroke-linejoin="round" points="211.932,226.071 
			209.61,223.032 207.106,220.171 204.245,217.845 201.561,215.164 198.341,212.66 195.48,210.333 192.261,208.368 188.863,206.222 
			186.36,204.969 179.564,204.969 180.816,205.684 183.856,207.653 186.539,209.976 189.4,212.479 192.082,214.983 194.586,217.487 
			196.732,220.171 199.057,223.032 201.202,226.071 		"/>
		
			<rect x="201.202" y="226.071" fill="none" stroke="#000000" stroke-width="3" stroke-linecap="round" stroke-linejoin="round" width="10.729" height="8.764"/>
		
			<rect x="201.202" y="226.071" fill="none" stroke="#000000" stroke-width="3" stroke-linecap="round" stroke-linejoin="round" width="10.729" height="8.764"/>
		
			<rect x="194.943" y="234.834" fill="none" stroke="#000000" stroke-width="3" stroke-linecap="round" stroke-linejoin="round" width="10.193" height="8.761"/>
		
			<rect x="194.943" y="234.834" fill="none" stroke="#000000" stroke-width="3" stroke-linecap="round" stroke-linejoin="round" width="10.193" height="8.761"/>
		
			<rect x="188.863" y="243.596" fill="none" stroke="#000000" stroke-width="3" stroke-linecap="round" stroke-linejoin="round" width="10.908" height="8.941"/>
		
			<rect x="188.863" y="243.596" fill="none" stroke="#000000" stroke-width="3" stroke-linecap="round" stroke-linejoin="round" width="10.908" height="8.941"/>
		<polygon fill="none" stroke="#000000" stroke-width="3" stroke-linecap="round" stroke-linejoin="round" points="162.576,388.269 
			162.933,388.984 163.648,390.058 164.364,391.308 164.364,392.56 164.364,393.812 164.364,395.242 163.648,396.315 
			163.112,397.566 162.576,398.64 153.098,398.64 153.992,397.566 154.35,396.315 155.065,395.242 155.065,393.812 155.065,392.56 
			154.707,391.308 154.171,390.058 153.813,388.984 153.098,388.269 		"/>
		<polygon fill="none" stroke="#000000" stroke-width="3" stroke-linecap="round" stroke-linejoin="round" points="162.576,388.269 
			162.933,388.984 163.648,390.058 164.364,391.308 164.364,392.56 164.364,393.812 164.364,395.242 163.648,396.315 
			163.112,397.566 162.576,398.64 153.098,398.64 153.992,397.566 154.35,396.315 155.065,395.242 155.065,393.812 155.065,392.56 
			154.707,391.308 154.171,390.058 153.813,388.984 153.098,388.269 		"/>
		
			<line fill="none" stroke="#000000" stroke-width="3" stroke-linecap="round" stroke-linejoin="round" x1="156.495" y1="694.601" x2="156.495" y2="704.794"/>
		
			<line fill="none" stroke="#000000" stroke-width="3" stroke-linecap="round" stroke-linejoin="round" x1="147.554" y1="694.601" x2="147.554" y2="704.794"/>
		<path fill="none" stroke="#000000" stroke-width="3" stroke-linecap="round" stroke-linejoin="round" d="M130,30.333
			C135.799,30.05,141.563,30,147.333,30c5.259,0,11.336-0.85,15.992,1.251c8.49,3.831,10.953,13.063,20.341,14.823
			c10.519,1.973,20.966,3.217,31.231,7.267c-13.008,0.1-26.064-0.877-38.565-3.692c-5.135-1.156-9.06-4.826-13.926-7.065
			c-4.522-2.081-10.978-2.816-16.074-1.51c-2.87,0.735-13.114,4.944-12.583,7.501c0.698,3.362,11.116,4.605,13.991,5.017
			c11.603,1.664,23.87,2.844,35.616,3.425c26.794,1.326,53.774-1.968,79.235,7.399c8.246,3.034,18.044,2.255,26.689,2.634
			c-0.183,5.618-10.681,5.803-14.69,5.025c-6.809-1.321-13.3-2.808-20.184-4.094c-14.395-2.688-27.12,3.575-41.002,5.02
			c-19.243,2.002-37.62-9.833-57.074-8.667c-5.069,0.304-12.271,1.876-16.999,3.741c-3.247,1.281-5.93,4.167-8.999,5.934
			c-2.874,1.654-12.086,7.341-7.02,10.757c2.847,1.919,6.699-0.209,9.344-1.183c3.149-1.159,6.27-1.846,9.334-3.241
			c6.275-2.855,12.755-5.206,19.689-5.693c7.088-0.498,14.336-0.65,21.058,1.269c6.245,1.783,11.729,4.123,18.259,4.416
			c3.745,0.168,7.535,0.152,11.3,0.399c-3.25,4.926-13.139,3.98-17.982,2.842c-8.596-2.02-18.727-3.452-27.658-3.242
			c-12.903,0.304-23.732,7.99-34.259,13.741c-4.861,2.656-9.953,5.519-14.743,8.324c-3.91,2.29-8.17,6.287-13.324,5.269
			c-3.118-0.616-3.658-2.24-4.26-5.073c-0.606-2.851,1.094-4.225,0.935-6.935c-0.232-3.952-4.769-9.518-7.415-12.641
			c-2.053-2.422-2.989-3.148-3.907-6.036c-0.731-2.299-1.549-4.484-1.703-6.983c-0.309-5.01,2.52-7.54,3.935-12.025
			c2.543-8.058,3.271-15.297,10.461-20.994c3.042-2.41,7.132-2.981,10.825-3.719C118.75,32.154,124.333,30.611,130,30.333z"/>
		<path fill="none" stroke="#000000" stroke-width="3" stroke-linecap="round" stroke-linejoin="round" d="M82,117.333
			c2.779,2.287,7.557,3.1,7.333,7.667c-0.157,3.206-2.94,6.315-3.26,9.739c-0.458,4.893,1.817,4.791,4.674,7.514
			c3.49,3.325-1.277,4.964-0.689,9.022c1.96,1.091,3.599,2.037,4.274,4.059c0.917,2.747-0.313,4.896,1.425,7.591
			c1.698,2.634,3.231,2.583,6.576,2.741c3.033,0.143,5.45,0.678,8.333,1.259c11.236,2.267,19.721-4.79,30.008-6.844
			c5.113-1.021,9.538-1.553,14.992-1.749c2.627-0.094,4.795-0.542,7.333-0.667c2.615-0.129,6.387,1.043,8.667,0"/>
		<path fill="none" stroke="#000000" stroke-width="3" stroke-linecap="round" stroke-linejoin="round" d="M125.219,201.355
			c-0.066-1.189-0.177-2.379-0.398-3.549c-0.074-0.391-0.294-0.635-0.567-0.777c0.004-0.266-0.059-0.53-0.186-0.755
			c-0.028-0.284-0.109-0.561-0.249-0.807c-0.604-1.063-1.813-1.253-2.853-0.787c-0.686,0.308-1.384,0.419-2.018,0.722
			c-1.126-0.029-2.266,0.046-3.449,0.091c-0.481,0.018-0.906,0.227-1.243,0.534c-0.442-0.004-0.894-0.013-1.339,0.006
			c-0.741,0.002-1.481,0.004-2.221,0.006c-0.066-0.002-0.126-0.016-0.196-0.012c-0.225,0.001-0.439,0.01-0.659,0.014
			c-0.614,0.002-1.228,0.003-1.841,0.005c-0.102,0-0.193,0.015-0.287,0.027c-0.933,0.012-1.867,0.038-2.8,0.068
			c-0.038-0.145-0.083-0.288-0.146-0.426c-0.003-0.009-0.008-0.017-0.011-0.025c-0.011-0.024-0.021-0.048-0.033-0.072
			c-0.128-0.314-0.337-0.588-0.631-0.78c-0.171-0.134-0.363-0.241-0.575-0.311c-0.878-0.289-1.606-0.378-2.275-0.251
			c-0.218-0.092-0.457-0.158-0.742-0.157l-1.5-0.003c-0.01,0-0.02,0.002-0.03,0.003c-2.99,0.003-5.98,0.001-8.97-0.001
			c-0.342,0-0.631,0.08-0.877,0.208c-4.181-0.574-8.354-1.071-12.608-0.177c-0.3,0.063-0.554,0.217-0.768,0.412
			c-0.749,0-1.498-0.001-2.247-0.002c-0.588,0-1.05,0.25-1.375,0.619c-2.375,0-4.75,0.001-7.125,0.002
			c-0.117,0-0.223,0.015-0.328,0.032c-0.058-0.005-0.111-0.017-0.172-0.017c-1.5,0.001-3,0.002-4.5,0.004
			c-0.431,0-0.781,0.124-1.053,0.326c-0.599-0.177-1.219-0.214-1.82,0.128c-0.157,0.089-0.298,0.214-0.43,0.355
			c-0.157,0.02-0.315,0.057-0.472,0.127c-0.374,0.117-0.748,0.234-1.122,0.351c-0.678,0.183-1.169,0.808-1.167,1.514
			c0.001,0.337,0.002,0.674,0.002,1.01c-0.102,0.22-0.205,0.451-0.311,0.71c-0.253,0.618-0.107,1.431,0.318,1.937l0.002,0.843
			c0.001,0.501,0.278,0.914,0.655,1.192c0.233,0.514,0.725,0.771,1.243,0.789c-0.323,0.588-0.325,1.328-0.05,1.931
			c-0.042-0.002-0.088,0.003-0.131,0.004c-0.347-0.444-0.903-0.693-1.569-0.46c-1.174,0.411-2.358,0.764-3.534,1.13
			c-0.37-0.155-0.825-0.165-1.326,0.067c-0.832,0.386-1.635,0.821-2.438,1.257c-0.531,0.221-1.058,0.455-1.575,0.722
			c-0.062,0.032-0.113,0.072-0.167,0.109c-1.892,0.376-3.558,1.117-5.044,2.3c-0.699-0.388-1.668-0.399-2.288,0.182
			c-1.002,0.938-1.804,2.066-2.722,3.087c-0.962-0.761-2.661-0.406-2.643,1.189c0.007,0.649-0.201,1.211-0.512,1.721
			c-0.526,0.038-1.056,0.306-1.44,0.875c-0.77,1.138-1.568,2.148-2.547,3.063c-0.36,0.109-0.659,0.349-0.786,0.734
			c-0.378,0.409-0.494,0.858-0.417,1.279c-0.163,0.304-0.326,0.609-0.488,0.914c-0.179,0.129-0.355,0.263-0.537,0.388
			c-0.892,0.617-1.017,1.599-0.637,2.325c-0.9,0.004-1.8,0.008-2.699,0.012c-0.585-0.016-1.169-0.027-1.75-0.029
			c-0.174-0.149-0.377-0.269-0.647-0.304c-1.72-0.226-3.06-0.133-4.458,0.375c-0.21,0.008-0.421,0.019-0.634,0.023
			c-0.134-0.025-0.276-0.041-0.433-0.032c-0.392-0.021-0.782,0.015-1.172,0.067c-0.248-0.767-0.971-1.155-1.703-1.153
			c-0.902-0.002-1.804,0.578-1.8,1.743c-0.004,1.333-0.008,2.667-0.012,4c-0.003,0.99,0.827,1.81,1.813,1.813
			c0.659,0.002,1.319,0.004,1.978,0.006c0.165,0.111,0.368,0.196,0.612,0.246c1.162,0.236,2.155,0.297,3.25,0.175
			c0.719,0,1.439-0.01,2.161-0.011c0.203,0,0.386-0.041,0.556-0.101c0.738-0.01,1.476-0.02,2.214-0.029
			c-0.095,0.125-0.17,0.271-0.222,0.435c-0.616,0.155-1.134,0.64-1.125,1.467v0.008c-0.448,1.511-0.078,3.678-0.024,4.992
			c0.006,0.143,0.029,0.274,0.063,0.397c0,0.034,0,0.069,0,0.103c-0.002,0.994,0.768,1.49,1.538,1.488
			c0.071,0,0.142-0.008,0.212-0.016c0.838,0.391,2.012,0.09,2.39-0.978c0.126,0.022,0.256,0.039,0.398,0.039
			c1.226,0.015,2.452,0.032,3.678,0.034c0.31,0.4,0.769,0.681,1.322,0.679c2.555-0.011,5.11,0.032,7.665-0.03
			c2.951,0.09,5.884,0.4,8.835,0.481c0.337,0.009,0.617-0.064,0.849-0.187c2.549,0.101,5.099,0.196,7.651,0.22
			c0.525,0.005,0.922-0.185,1.2-0.473c0.1,0,0.2,0,0.3,0c0.543,0,0.967-0.236,1.262-0.581c0.727,0.039,1.449,0.041,2.17,0.021
			c0.172,0.054,0.357,0.091,0.568,0.092c1.292,0.005,2.584-0.002,3.876-0.003c0.312,0.282,0.714,0.461,1.181,0.45
			c1.235-0.031,2.514-0.233,3.785-0.453c0.553-0.001,1.105,0,1.658-0.001c0.08,0,0.15-0.014,0.224-0.022l2.735-0.004
			c0.29,0.182,0.636,0.295,1.041,0.295h4.483c1.359,0,2.611-0.498,4.017-0.5c1.272-0.002,1.979-1.021,1.999-2.046
			c0.133-0.481,0.11-1.022-0.14-1.561c-0.216-0.466-0.404-0.898-0.622-1.315c0.088-0.817-0.301-1.667-1.284-1.857
			c-2.651-0.51-5.569-0.751-8.279-0.353c-0.979-0.421-1.813,0.091-2.051,1.213c-0.228-0.018-0.458-0.043-0.685-0.058
			c-0.261-0.465-0.74-0.803-1.438-0.802c-0.234,0-0.469,0-0.703-0.001c-0.125-0.134-0.288-0.245-0.529-0.292
			c-2.733-0.533-5.485-0.782-8.247-0.874c0.066-0.103,0.124-0.211,0.168-0.326c0.45-0.022,0.906-0.079,1.409-0.221
			c1.675,0.053,3.345,0.161,5.021,0.396c0.635,0.089,1.146-0.177,1.475-0.577c0.237-0.104,0.435-0.275,0.59-0.479
			c0.345,0.35,0.797,0.584,1.316,0.582c0.124,0,0.247,0,0.371-0.001c0.251,0.202,0.576,0.33,0.969,0.359
			c0.018,0.006,0.036,0.012,0.054,0.017c-0.296,0.003-0.128,0.02,0.107,0.034c0.154,0.037,0.318,0.062,0.499,0.061
			c1.5-0.003,3-0.006,4.5-0.009c0.737,0.001,1.251-0.337,1.555-0.811c0.344-0.229,0.572-0.551,0.707-0.903
			c0.245,0.661,0.823,1.191,1.738,1.209c0.122,0.002,0.244,0.005,0.367,0.007c0.187,0.149,0.401,0.272,0.667,0.331
			c1.308,0.289,2.635,0.216,3.966,0.216c0.563,0,0.994-0.187,1.31-0.47c1.116-0.143,1.678-1.078,1.675-2.022
			c0.002-0.517-0.163-1.033-0.496-1.418c0.349-0.315,0.472-0.757,0.431-1.186c0.783,0.263,1.72,0.046,2.357-0.887
			c0.498-0.73,0.907-1.476,1.26-2.236c0.863-0.047,1.717-0.642,1.807-1.773c0.009-0.113,0.031-0.218,0.043-0.329
			c0.486-0.738,0.801-1.586,0.999-2.539c0.089-0.035,0.177-0.072,0.265-0.108c0,0,0,0.001,0,0.001
			c0.002-0.001,0.004-0.003,0.006-0.004c1.698-0.711,3.006-1.649,4.083-2.77c1.86-1.357,3.41-2.932,3.603-5.205
			c0.063-0.006,0.124-0.007,0.189-0.019c0.078-0.015,0.143-0.045,0.219-0.062c0.223,0.083,0.47,0.143,0.749,0.16
			c3.352,0.209,6.029-1.23,8.115-3.573c1.021-0.578,1.951-1.256,2.865-2.073c0.653-0.583,0.739-1.378,0.49-2.076
			c0.946-0.387,1.814-0.869,2.594-1.528c0.09-0.005,0.18-0.013,0.269-0.029c0.038,0.001,0.08-0.008,0.118-0.01
			c0.228,0.394,0.575,0.664,0.966,0.802c0.033,0.068,0.057,0.141,0.091,0.208c0.341,0.675,1.214,1.008,1.926,0.812
			c0.059-0.016,0.076-0.025,0.073-0.03c0.784-0.042,1.306-0.493,1.569-1.215C125.412,203.491,125.272,202.313,125.219,201.355z
			 M29,236.026c-0.135,0.016-0.26,0.045-0.381,0.08c0.011-0.369,0.021-0.738,0.032-1.106c0.014-0.472-0.245-0.806-0.59-0.983
			c0.175-0.005,0.334-0.035,0.477-0.084c0.146,0.038,0.298,0.064,0.462,0.065c0.708,0.004,1.413,0.034,2.119,0.048
			c-0.127,0.604,0.005,1.27,0.429,1.763C30.698,235.86,29.849,235.929,29,236.026z M64.219,225.326
			c-0.623-0.28-1.257-0.516-1.899-0.722c0.087,0.002,0.174,0.005,0.261,0.005c0.81,0.042,1.623,0.062,2.438,0.072
			C64.683,224.783,64.389,224.998,64.219,225.326z M69.21,225.768c-0.116,0.222-0.217,0.444-0.313,0.666c-0.001,0-0.002,0-0.002,0
			c-0.026-0.833-0.663-1.262-1.325-1.284c0.058-0.208,0.12-0.414,0.182-0.621c0.08,0.012,0.16,0.023,0.249,0.022
			c0.715,0.004,1.43,0.008,2.145,0.011c0.007,0.172,0.043,0.341,0.109,0.5C69.836,225.114,69.441,225.326,69.21,225.768z
			 M79.888,217.976c-0.394-0.004-0.788-0.004-1.182-0.005c0.646-0.545,1.302-1.075,1.967-1.591
			C80.413,216.915,80.151,217.447,79.888,217.976z M84.42,226.842c-0.715-0.119-1.434-0.18-2.184-0.191
			c0.512-0.065,1.013-0.181,1.506-0.324c0.297-0.014,0.589-0.078,0.857-0.205C84.565,226.4,84.506,226.642,84.42,226.842z
			 M107.647,205.119c-0.345-0.454-0.898-0.745-1.528-0.571c-0.008,0.002-0.017,0.004-0.025,0.007
			c-0.163-0.105-0.351-0.184-0.594-0.187c-0.157-0.002-0.326-0.002-0.485-0.004c1.262-0.022,2.539-0.109,3.796-0.296
			C108.426,204.422,108.041,204.777,107.647,205.119z"/>
	</g>
</g>
</svg>
